<?xml version="1.0" ?><!DOCTYPE svg  PUBLIC '-//W3C//DTD SVG 1.1//EN'  'http://www.w3.org/Graphics/SVG/1.1/DTD/svg11.dtd'><svg height="78px" id="Layer_1" style="enable-background:new 0 0 78 78;" version="1.1" viewBox="0 0 78 78" width="78px" xml:space="preserve" xmlns="http://www.w3.org/2000/svg" xmlns:xlink="http://www.w3.org/1999/xlink"><g><path d="M69,12H9c-4.963,0-9,4.038-9,9v36c0,4.962,4.037,9,9,9h60c4.963,0,9-4.038,9-9V21   C78,16.038,73.963,12,69,12z M72,57c0,1.654-1.346,3-3,3H9c-1.654,0-3-1.346-3-3V21c0-1.654,1.346-3,3-3h60c1.654,0,3,1.346,3,3V57   z" style="fill:#333F4F;"/><path d="M63,27H15c-1.657,0-3,1.343-3,3s1.343,3,3,3h48c1.657,0,3-1.343,3-3S64.657,27,63,27z" style="fill:#333F4F;"/><path d="M63,45H48c-1.657,0-3,1.343-3,3s1.343,3,3,3h15c1.657,0,3-1.343,3-3S64.657,45,63,45z" style="fill:#333F4F;"/><path d="M31,39c-1.961,0-3.771,0.637-5.252,1.706C24.27,39.637,22.46,39,20.5,39c-4.963,0-9,4.038-9,9.001   s4.037,9.001,9,9.001c1.96,0,3.77-0.637,5.248-1.706c1.48,1.069,3.291,1.706,5.252,1.706c4.963,0,9-4.038,9-9.001S35.963,39,31,39z    M31,54.002c-3.309,0-6-2.692-6-6.001S27.691,42,31,42s6,2.692,6,6.001S34.309,54.002,31,54.002z" style="fill:#333F4F;"/></g></svg>