<?xml version="1.0" ?><!DOCTYPE svg  PUBLIC '-//W3C//DTD SVG 1.1//EN'  'http://www.w3.org/Graphics/SVG/1.1/DTD/svg11.dtd'><svg enable-background="new 0 0 32 32" height="32px" id="Layer_1" version="1.1" viewBox="0 0 32 32" width="32px" xml:space="preserve" xmlns="http://www.w3.org/2000/svg" xmlns:xlink="http://www.w3.org/1999/xlink"><g><path d="M16,30c-3.74,0-7.255-1.456-9.899-4.101C1.779,21.578,0.752,15.025,3.547,9.595C3.8,9.104,4.402,8.911,4.894,9.163   s0.685,0.855,0.432,1.347C2.93,15.164,3.81,20.78,7.515,24.485C9.781,26.752,12.794,28,16,28c3.205,0,6.219-1.248,8.485-3.515   S28,19.205,28,16c0-3.206-1.248-6.219-3.515-8.485S19.206,4,16,4c-3.206,0-6.219,1.249-8.485,3.515   c-0.391,0.391-1.023,0.391-1.414,0s-0.391-1.023,0-1.414C8.745,3.457,12.26,2,16,2c3.74,0,7.256,1.457,9.899,4.101   C28.544,8.745,30,12.26,30,16c0,3.739-1.456,7.255-4.101,9.899C23.256,28.544,19.74,30,16,30z"/></g><g><path d="M16,20c-1.068,0-2.073-0.416-2.829-1.172c-1.56-1.56-1.56-4.097,0-5.656c1.257-1.257,7.272-3.639,8.465-4.104   c0.371-0.144,0.79-0.056,1.07,0.225s0.369,0.7,0.225,1.07c-0.465,1.193-2.847,7.209-4.104,8.465C18.073,19.584,17.068,20,16,20z    M20.188,11.813c-2.453,1.028-5.064,2.235-5.602,2.773c-0.78,0.78-0.78,2.048,0,2.828c0.756,0.756,2.073,0.756,2.829,0   C17.952,16.875,19.16,14.266,20.188,11.813z"/></g></svg>