<?xml version="1.0" encoding="iso-8859-1"?>
<!-- Generator: Adobe Illustrator 18.1.1, SVG Export Plug-In . SVG Version: 6.00 Build 0)  -->
<svg version="1.1" id="Capa_1" xmlns="http://www.w3.org/2000/svg" xmlns:xlink="http://www.w3.org/1999/xlink" x="0px" y="0px"
	 viewBox="0 0 417.646 417.646" style="enable-background:new 0 0 417.646 417.646;" xml:space="preserve">
<g>
	<path style="fill:#010002;" d="M84.22,167.728h52.958v107.468c0,19.785,16.038,35.823,35.823,35.823h71.645
		c19.785,0,35.823-16.038,35.823-35.823V167.728h52.958c19.785,0,24.483-11.339,10.494-25.329L234.152,32.631
		c-13.989-13.989-36.668-13.989-50.657,0L73.726,142.399C59.737,156.389,64.435,167.728,84.22,167.728z"/>
	<path style="fill:#010002;" d="M24.386,395.507H393.26c13.469,0,24.386-10.917,24.386-24.386s-10.917-24.386-24.386-24.386H24.386
		C10.917,346.736,0,357.652,0,371.121S10.909,395.507,24.386,395.507z"/>
</g>
<g>
</g>
<g>
</g>
<g>
</g>
<g>
</g>
<g>
</g>
<g>
</g>
<g>
</g>
<g>
</g>
<g>
</g>
<g>
</g>
<g>
</g>
<g>
</g>
<g>
</g>
<g>
</g>
<g>
</g>
</svg>
