<svg xmlns="http://www.w3.org/2000/svg" viewBox="0 0 400 400"><defs><style>.cls-1{fill:#fff;}</style></defs><title>rectangle</title><g id="Ebene_2" data-name="Ebene 2"><g id="Ebene_1-2" data-name="Ebene 1"><rect class="cls-1" x="1" y="1" width="398" height="398" rx="19.9"/><path d="M379.1,2A18.92,18.92,0,0,1,398,20.9V379.1A18.92,18.92,0,0,1,379.1,398H20.9A18.92,18.92,0,0,1,2,379.1V20.9A18.92,18.92,0,0,1,20.9,2H379.1m0-2H20.9A20.9,20.9,0,0,0,0,20.9V379.1A20.9,20.9,0,0,0,20.9,400H379.1A20.9,20.9,0,0,0,400,379.1V20.9A20.9,20.9,0,0,0,379.1,0Z"/></g></g></svg>